M48
;DRILL file {KiCad (5.0.1-3-g963ef8bb5)} date Thursday, October 31, 2019 at 01:33:30 PM
;FORMAT={2:4/ absolute / inch / suppress trailing zeros}
FMAT,2
INCH,LZ
T1C0.0394
T2C0.0433
T3C0.0598
T4C0.0866
%
G90
G05
M72
T1
X037384Y-057116
X038368Y-057116
X039352Y-057116
X037384Y-021477
X038368Y-021477
X039352Y-021477
X037384Y-039297
X038368Y-039297
X039352Y-039297
X037384Y-030387
X038368Y-030387
X039352Y-030387
X037384Y-048206
X038368Y-048206
X039352Y-048206
T2
X032463Y-016241
X032463Y-017422
X032463Y-020769
X032463Y-05188
X032463Y-053061
X032463Y-056407
X032463Y-025151
X032463Y-026332
X032463Y-029678
X032463Y-03406
X032463Y-035242
X032463Y-038588
X032463Y-04297
X032463Y-044151
X032463Y-047498
T3
X042363Y-05475
X042363Y-05675
X042363Y-02805
X042363Y-03005
X042363Y-03695
X042363Y-03895
X042363Y-04585
X042363Y-04785
X042363Y-01915
X042363Y-02115
T4
X036636Y-05436
X0401Y-05436
X036636Y-018721
X0401Y-018721
X036636Y-036541
X0401Y-036541
X036636Y-027631
X0401Y-027631
X036636Y-04545
X0401Y-04545
T0
M30
