G04 #@! TF.GenerationSoftware,KiCad,Pcbnew,(5.0.1-3-g963ef8bb5)*
G04 #@! TF.CreationDate,2019-10-31T13:33:25-05:00*
G04 #@! TF.ProjectId,ec_trim_12hp_module,65635F7472696D5F313268705F6D6F64,rev?*
G04 #@! TF.SameCoordinates,Original*
G04 #@! TF.FileFunction,Copper,L2,Bot,Signal*
G04 #@! TF.FilePolarity,Positive*
%FSLAX46Y46*%
G04 Gerber Fmt 4.6, Leading zero omitted, Abs format (unit mm)*
G04 Created by KiCad (PCBNEW (5.0.1-3-g963ef8bb5)) date Thursday, October 31, 2019 at 01:33:25 PM*
%MOMM*%
%LPD*%
G01*
G04 APERTURE LIST*
G04 #@! TA.AperFunction,ComponentPad*
%ADD10C,3.000000*%
G04 #@! TD*
G04 #@! TA.AperFunction,ComponentPad*
%ADD11R,3.000000X3.000000*%
G04 #@! TD*
G04 #@! TA.AperFunction,ComponentPad*
%ADD12C,1.800000*%
G04 #@! TD*
G04 #@! TA.AperFunction,ComponentPad*
%ADD13C,1.650000*%
G04 #@! TD*
G04 APERTURE END LIST*
D10*
G04 #@! TO.P,J1004,2*
G04 #@! TO.N,Net-(J1004-Pad2)*
X107601000Y-116459000D03*
D11*
G04 #@! TO.P,J1004,1*
G04 #@! TO.N,Net-(J1004-Pad1)*
X107601000Y-121539000D03*
G04 #@! TD*
G04 #@! TO.P,J1005,1*
G04 #@! TO.N,Net-(J1005-Pad1)*
X107601000Y-144145000D03*
D10*
G04 #@! TO.P,J1005,2*
G04 #@! TO.N,Net-(J1005-Pad2)*
X107601000Y-139065000D03*
G04 #@! TD*
D11*
G04 #@! TO.P,RV1002,*
G04 #@! TO.N,*
X93055000Y-70182750D03*
X101855000Y-70182750D03*
D12*
G04 #@! TO.P,RV1002,1*
G04 #@! TO.N,Net-(RV1002-Pad1)*
X94955000Y-77182750D03*
G04 #@! TO.P,RV1002,3*
G04 #@! TO.N,Net-(J1002-Pad2)*
X99955000Y-77182750D03*
G04 #@! TO.P,RV1002,2*
G04 #@! TO.N,Net-(J1002-Pad1)*
X97455000Y-77182750D03*
G04 #@! TD*
D11*
G04 #@! TO.P,RV1004,*
G04 #@! TO.N,*
X93055000Y-115444250D03*
X101855000Y-115444250D03*
D12*
G04 #@! TO.P,RV1004,1*
G04 #@! TO.N,Net-(RV1004-Pad1)*
X94955000Y-122444250D03*
G04 #@! TO.P,RV1004,3*
G04 #@! TO.N,Net-(J1004-Pad2)*
X99955000Y-122444250D03*
G04 #@! TO.P,RV1004,2*
G04 #@! TO.N,Net-(J1004-Pad1)*
X97455000Y-122444250D03*
G04 #@! TD*
G04 #@! TO.P,RV1005,2*
G04 #@! TO.N,Net-(J1005-Pad1)*
X97455000Y-145075000D03*
G04 #@! TO.P,RV1005,3*
G04 #@! TO.N,Net-(J1005-Pad2)*
X99955000Y-145075000D03*
G04 #@! TO.P,RV1005,1*
G04 #@! TO.N,Net-(RV1005-Pad1)*
X94955000Y-145075000D03*
D11*
G04 #@! TO.P,RV1005,*
G04 #@! TO.N,*
X101855000Y-138075000D03*
X93055000Y-138075000D03*
G04 #@! TD*
D12*
G04 #@! TO.P,RV1003,2*
G04 #@! TO.N,Net-(J1003-Pad1)*
X97455000Y-99813500D03*
G04 #@! TO.P,RV1003,3*
G04 #@! TO.N,Net-(J1003-Pad2)*
X99955000Y-99813500D03*
G04 #@! TO.P,RV1003,1*
G04 #@! TO.N,Net-(RV1003-Pad1)*
X94955000Y-99813500D03*
D11*
G04 #@! TO.P,RV1003,*
G04 #@! TO.N,*
X101855000Y-92813500D03*
X93055000Y-92813500D03*
G04 #@! TD*
D10*
G04 #@! TO.P,J1002,2*
G04 #@! TO.N,Net-(J1002-Pad2)*
X107601000Y-71247000D03*
D11*
G04 #@! TO.P,J1002,1*
G04 #@! TO.N,Net-(J1002-Pad1)*
X107601000Y-76327000D03*
G04 #@! TD*
G04 #@! TO.P,J1003,1*
G04 #@! TO.N,Net-(J1003-Pad1)*
X107601000Y-98933000D03*
D10*
G04 #@! TO.P,J1003,2*
G04 #@! TO.N,Net-(J1003-Pad2)*
X107601000Y-93853000D03*
G04 #@! TD*
D13*
G04 #@! TO.P,U1004,P$3*
G04 #@! TO.N,Net-(J1004-Pad2)*
X82455000Y-109144250D03*
G04 #@! TO.P,U1004,P$2*
G04 #@! TO.N,Net-(U1004-PadP$2)*
X82455000Y-112144250D03*
G04 #@! TO.P,U1004,P$1*
G04 #@! TO.N,Net-(RV1004-Pad1)*
X82455000Y-120644250D03*
G04 #@! TD*
G04 #@! TO.P,U1005,P$1*
G04 #@! TO.N,Net-(RV1005-Pad1)*
X82455000Y-143275000D03*
G04 #@! TO.P,U1005,P$2*
G04 #@! TO.N,Net-(U1005-PadP$2)*
X82455000Y-134775000D03*
G04 #@! TO.P,U1005,P$3*
G04 #@! TO.N,Net-(J1005-Pad2)*
X82455000Y-131775000D03*
G04 #@! TD*
G04 #@! TO.P,U1002,P$3*
G04 #@! TO.N,Net-(J1002-Pad2)*
X82455000Y-63882750D03*
G04 #@! TO.P,U1002,P$2*
G04 #@! TO.N,Net-(U1002-PadP$2)*
X82455000Y-66882750D03*
G04 #@! TO.P,U1002,P$1*
G04 #@! TO.N,Net-(RV1002-Pad1)*
X82455000Y-75382750D03*
G04 #@! TD*
G04 #@! TO.P,U1003,P$1*
G04 #@! TO.N,Net-(RV1003-Pad1)*
X82455000Y-98013500D03*
G04 #@! TO.P,U1003,P$2*
G04 #@! TO.N,Net-(U1003-PadP$2)*
X82455000Y-89513500D03*
G04 #@! TO.P,U1003,P$3*
G04 #@! TO.N,Net-(J1003-Pad2)*
X82455000Y-86513500D03*
G04 #@! TD*
D11*
G04 #@! TO.P,J1001,1*
G04 #@! TO.N,Net-(J1001-Pad1)*
X107601000Y-53721000D03*
D10*
G04 #@! TO.P,J1001,2*
G04 #@! TO.N,Net-(J1001-Pad2)*
X107601000Y-48641000D03*
G04 #@! TD*
D12*
G04 #@! TO.P,RV1001,2*
G04 #@! TO.N,Net-(J1001-Pad1)*
X97455000Y-54552000D03*
G04 #@! TO.P,RV1001,3*
G04 #@! TO.N,Net-(J1001-Pad2)*
X99955000Y-54552000D03*
G04 #@! TO.P,RV1001,1*
G04 #@! TO.N,Net-(RV1001-Pad1)*
X94955000Y-54552000D03*
D11*
G04 #@! TO.P,RV1001,*
G04 #@! TO.N,*
X101855000Y-47552000D03*
X93055000Y-47552000D03*
G04 #@! TD*
D13*
G04 #@! TO.P,U1001,P$1*
G04 #@! TO.N,Net-(RV1001-Pad1)*
X82455000Y-52752000D03*
G04 #@! TO.P,U1001,P$2*
G04 #@! TO.N,Net-(U1001-PadP$2)*
X82455000Y-44252000D03*
G04 #@! TO.P,U1001,P$3*
G04 #@! TO.N,Net-(J1001-Pad2)*
X82455000Y-41252000D03*
G04 #@! TD*
M02*
