G04 #@! TF.GenerationSoftware,KiCad,Pcbnew,(5.0.1-3-g963ef8bb5)*
G04 #@! TF.CreationDate,2019-10-31T13:33:25-05:00*
G04 #@! TF.ProjectId,ec_trim_12hp_module,65635F7472696D5F313268705F6D6F64,rev?*
G04 #@! TF.SameCoordinates,Original*
G04 #@! TF.FileFunction,Legend,Top*
G04 #@! TF.FilePolarity,Positive*
%FSLAX46Y46*%
G04 Gerber Fmt 4.6, Leading zero omitted, Abs format (unit mm)*
G04 Created by KiCad (PCBNEW (5.0.1-3-g963ef8bb5)) date Thursday, October 31, 2019 at 01:33:25 PM*
%MOMM*%
%LPD*%
G01*
G04 APERTURE LIST*
%ADD10C,0.300000*%
%ADD11C,0.120000*%
%ADD12C,0.127000*%
%ADD13C,0.150000*%
%ADD14C,0.050000*%
G04 APERTURE END LIST*
D10*
X91087857Y-41548857D02*
X91587857Y-41548857D01*
X91802142Y-42334571D02*
X91087857Y-42334571D01*
X91087857Y-40834571D01*
X91802142Y-40834571D01*
X93302142Y-42191714D02*
X93230714Y-42263142D01*
X93016428Y-42334571D01*
X92873571Y-42334571D01*
X92659285Y-42263142D01*
X92516428Y-42120285D01*
X92445000Y-41977428D01*
X92373571Y-41691714D01*
X92373571Y-41477428D01*
X92445000Y-41191714D01*
X92516428Y-41048857D01*
X92659285Y-40906000D01*
X92873571Y-40834571D01*
X93016428Y-40834571D01*
X93230714Y-40906000D01*
X93302142Y-40977428D01*
X93945000Y-41763142D02*
X95087857Y-41763142D01*
X95587857Y-40834571D02*
X96445000Y-40834571D01*
X96016428Y-42334571D02*
X96016428Y-40834571D01*
X96945000Y-42334571D02*
X96945000Y-41334571D01*
X96945000Y-41620285D02*
X97016428Y-41477428D01*
X97087857Y-41406000D01*
X97230714Y-41334571D01*
X97373571Y-41334571D01*
X97873571Y-42334571D02*
X97873571Y-41334571D01*
X97873571Y-40834571D02*
X97802142Y-40906000D01*
X97873571Y-40977428D01*
X97945000Y-40906000D01*
X97873571Y-40834571D01*
X97873571Y-40977428D01*
X98587857Y-42334571D02*
X98587857Y-41334571D01*
X98587857Y-41477428D02*
X98659285Y-41406000D01*
X98802142Y-41334571D01*
X99016428Y-41334571D01*
X99159285Y-41406000D01*
X99230714Y-41548857D01*
X99230714Y-42334571D01*
X99230714Y-41548857D02*
X99302142Y-41406000D01*
X99445000Y-41334571D01*
X99659285Y-41334571D01*
X99802142Y-41406000D01*
X99873571Y-41548857D01*
X99873571Y-42334571D01*
X100587857Y-41763142D02*
X101730714Y-41763142D01*
X102445000Y-41548857D02*
X102945000Y-41548857D01*
X103159285Y-42334571D02*
X102445000Y-42334571D01*
X102445000Y-40834571D01*
X103159285Y-40834571D01*
X103802142Y-42334571D02*
X103802142Y-40834571D01*
X104302142Y-41906000D01*
X104802142Y-40834571D01*
X104802142Y-42334571D01*
X106659285Y-42334571D02*
X106659285Y-41334571D01*
X106659285Y-41620285D02*
X106730714Y-41477428D01*
X106802142Y-41406000D01*
X106945000Y-41334571D01*
X107087857Y-41334571D01*
X107873571Y-40834571D02*
X108016428Y-40834571D01*
X108159285Y-40906000D01*
X108230714Y-40977428D01*
X108302142Y-41120285D01*
X108373571Y-41406000D01*
X108373571Y-41763142D01*
X108302142Y-42048857D01*
X108230714Y-42191714D01*
X108159285Y-42263142D01*
X108016428Y-42334571D01*
X107873571Y-42334571D01*
X107730714Y-42263142D01*
X107659285Y-42191714D01*
X107587857Y-42048857D01*
X107516428Y-41763142D01*
X107516428Y-41406000D01*
X107587857Y-41120285D01*
X107659285Y-40977428D01*
X107730714Y-40906000D01*
X107873571Y-40834571D01*
D11*
G04 #@! TO.C,J1004*
X111411000Y-124079000D02*
X111411000Y-113919000D01*
X103791000Y-124079000D02*
X111411000Y-124079000D01*
X103791000Y-113919000D02*
X103791000Y-124079000D01*
X111411000Y-113919000D02*
X103791000Y-113919000D01*
X110141000Y-113919000D02*
X110141000Y-124079000D01*
G04 #@! TO.C,J1005*
X110141000Y-136525000D02*
X110141000Y-146685000D01*
X111411000Y-136525000D02*
X103791000Y-136525000D01*
X103791000Y-136525000D02*
X103791000Y-146685000D01*
X103791000Y-146685000D02*
X111411000Y-146685000D01*
X111411000Y-146685000D02*
X111411000Y-136525000D01*
G04 #@! TO.C,J1002*
X111411000Y-78867000D02*
X111411000Y-68707000D01*
X103791000Y-78867000D02*
X111411000Y-78867000D01*
X103791000Y-68707000D02*
X103791000Y-78867000D01*
X111411000Y-68707000D02*
X103791000Y-68707000D01*
X110141000Y-68707000D02*
X110141000Y-78867000D01*
G04 #@! TO.C,J1003*
X110141000Y-91313000D02*
X110141000Y-101473000D01*
X111411000Y-91313000D02*
X103791000Y-91313000D01*
X103791000Y-91313000D02*
X103791000Y-101473000D01*
X103791000Y-101473000D02*
X111411000Y-101473000D01*
X111411000Y-101473000D02*
X111411000Y-91313000D01*
D12*
G04 #@! TO.C,U1004*
X82255000Y-108944250D02*
X82255000Y-111144250D01*
X82655000Y-108944250D02*
X82255000Y-108944250D01*
X82655000Y-111044250D02*
X82655000Y-108944250D01*
X85145720Y-115644250D02*
G75*
G03X85145720Y-115644250I-2690720J0D01*
G01*
X80955000Y-119644250D02*
X80955000Y-121644250D01*
X83955000Y-119644250D02*
X80955000Y-119644250D01*
X83955000Y-121644250D02*
X83955000Y-119644250D01*
X85617280Y-115644250D02*
G75*
G03X85617280Y-115644250I-3162280J0D01*
G01*
X77955000Y-111144250D02*
X77955000Y-121644250D01*
X82255000Y-111144250D02*
X77955000Y-111144250D01*
X86955000Y-111144250D02*
X82255000Y-111144250D01*
X86955000Y-121644250D02*
X86955000Y-111144250D01*
X80955000Y-121644250D02*
X77955000Y-121644250D01*
X83955000Y-121644250D02*
X80955000Y-121644250D01*
X86955000Y-121644250D02*
X83955000Y-121644250D01*
G04 #@! TO.C,U1005*
X86955000Y-144275000D02*
X83955000Y-144275000D01*
X83955000Y-144275000D02*
X80955000Y-144275000D01*
X80955000Y-144275000D02*
X77955000Y-144275000D01*
X86955000Y-144275000D02*
X86955000Y-133775000D01*
X86955000Y-133775000D02*
X82255000Y-133775000D01*
X82255000Y-133775000D02*
X77955000Y-133775000D01*
X77955000Y-133775000D02*
X77955000Y-144275000D01*
X85617280Y-138275000D02*
G75*
G03X85617280Y-138275000I-3162280J0D01*
G01*
X83955000Y-144275000D02*
X83955000Y-142275000D01*
X83955000Y-142275000D02*
X80955000Y-142275000D01*
X80955000Y-142275000D02*
X80955000Y-144275000D01*
X85145720Y-138275000D02*
G75*
G03X85145720Y-138275000I-2690720J0D01*
G01*
X82655000Y-133675000D02*
X82655000Y-131575000D01*
X82655000Y-131575000D02*
X82255000Y-131575000D01*
X82255000Y-131575000D02*
X82255000Y-133775000D01*
G04 #@! TO.C,U1002*
X82255000Y-63682750D02*
X82255000Y-65882750D01*
X82655000Y-63682750D02*
X82255000Y-63682750D01*
X82655000Y-65782750D02*
X82655000Y-63682750D01*
X85145720Y-70382750D02*
G75*
G03X85145720Y-70382750I-2690720J0D01*
G01*
X80955000Y-74382750D02*
X80955000Y-76382750D01*
X83955000Y-74382750D02*
X80955000Y-74382750D01*
X83955000Y-76382750D02*
X83955000Y-74382750D01*
X85617280Y-70382750D02*
G75*
G03X85617280Y-70382750I-3162280J0D01*
G01*
X77955000Y-65882750D02*
X77955000Y-76382750D01*
X82255000Y-65882750D02*
X77955000Y-65882750D01*
X86955000Y-65882750D02*
X82255000Y-65882750D01*
X86955000Y-76382750D02*
X86955000Y-65882750D01*
X80955000Y-76382750D02*
X77955000Y-76382750D01*
X83955000Y-76382750D02*
X80955000Y-76382750D01*
X86955000Y-76382750D02*
X83955000Y-76382750D01*
G04 #@! TO.C,U1003*
X86955000Y-99013500D02*
X83955000Y-99013500D01*
X83955000Y-99013500D02*
X80955000Y-99013500D01*
X80955000Y-99013500D02*
X77955000Y-99013500D01*
X86955000Y-99013500D02*
X86955000Y-88513500D01*
X86955000Y-88513500D02*
X82255000Y-88513500D01*
X82255000Y-88513500D02*
X77955000Y-88513500D01*
X77955000Y-88513500D02*
X77955000Y-99013500D01*
X85617280Y-93013500D02*
G75*
G03X85617280Y-93013500I-3162280J0D01*
G01*
X83955000Y-99013500D02*
X83955000Y-97013500D01*
X83955000Y-97013500D02*
X80955000Y-97013500D01*
X80955000Y-97013500D02*
X80955000Y-99013500D01*
X85145720Y-93013500D02*
G75*
G03X85145720Y-93013500I-2690720J0D01*
G01*
X82655000Y-88413500D02*
X82655000Y-86313500D01*
X82655000Y-86313500D02*
X82255000Y-86313500D01*
X82255000Y-86313500D02*
X82255000Y-88513500D01*
D11*
G04 #@! TO.C,J1001*
X110141000Y-46101000D02*
X110141000Y-56261000D01*
X111411000Y-46101000D02*
X103791000Y-46101000D01*
X103791000Y-46101000D02*
X103791000Y-56261000D01*
X103791000Y-56261000D02*
X111411000Y-56261000D01*
X111411000Y-56261000D02*
X111411000Y-46101000D01*
D12*
G04 #@! TO.C,U1001*
X86955000Y-53752000D02*
X83955000Y-53752000D01*
X83955000Y-53752000D02*
X80955000Y-53752000D01*
X80955000Y-53752000D02*
X77955000Y-53752000D01*
X86955000Y-53752000D02*
X86955000Y-43252000D01*
X86955000Y-43252000D02*
X82255000Y-43252000D01*
X82255000Y-43252000D02*
X77955000Y-43252000D01*
X77955000Y-43252000D02*
X77955000Y-53752000D01*
X85617280Y-47752000D02*
G75*
G03X85617280Y-47752000I-3162280J0D01*
G01*
X83955000Y-53752000D02*
X83955000Y-51752000D01*
X83955000Y-51752000D02*
X80955000Y-51752000D01*
X80955000Y-51752000D02*
X80955000Y-53752000D01*
X85145720Y-47752000D02*
G75*
G03X85145720Y-47752000I-2690720J0D01*
G01*
X82655000Y-43152000D02*
X82655000Y-41052000D01*
X82655000Y-41052000D02*
X82255000Y-41052000D01*
X82255000Y-41052000D02*
X82255000Y-43252000D01*
G04 #@! TO.C,J1004*
D13*
X101973380Y-120760904D02*
X102687666Y-120760904D01*
X102830523Y-120808523D01*
X102925761Y-120903761D01*
X102973380Y-121046619D01*
X102973380Y-121141857D01*
X102973380Y-119760904D02*
X102973380Y-120332333D01*
X102973380Y-120046619D02*
X101973380Y-120046619D01*
X102116238Y-120141857D01*
X102211476Y-120237095D01*
X102259095Y-120332333D01*
X101973380Y-119141857D02*
X101973380Y-119046619D01*
X102021000Y-118951380D01*
X102068619Y-118903761D01*
X102163857Y-118856142D01*
X102354333Y-118808523D01*
X102592428Y-118808523D01*
X102782904Y-118856142D01*
X102878142Y-118903761D01*
X102925761Y-118951380D01*
X102973380Y-119046619D01*
X102973380Y-119141857D01*
X102925761Y-119237095D01*
X102878142Y-119284714D01*
X102782904Y-119332333D01*
X102592428Y-119379952D01*
X102354333Y-119379952D01*
X102163857Y-119332333D01*
X102068619Y-119284714D01*
X102021000Y-119237095D01*
X101973380Y-119141857D01*
X101973380Y-118189476D02*
X101973380Y-118094238D01*
X102021000Y-117999000D01*
X102068619Y-117951380D01*
X102163857Y-117903761D01*
X102354333Y-117856142D01*
X102592428Y-117856142D01*
X102782904Y-117903761D01*
X102878142Y-117951380D01*
X102925761Y-117999000D01*
X102973380Y-118094238D01*
X102973380Y-118189476D01*
X102925761Y-118284714D01*
X102878142Y-118332333D01*
X102782904Y-118379952D01*
X102592428Y-118427571D01*
X102354333Y-118427571D01*
X102163857Y-118379952D01*
X102068619Y-118332333D01*
X102021000Y-118284714D01*
X101973380Y-118189476D01*
X102306714Y-116999000D02*
X102973380Y-116999000D01*
X101925761Y-117237095D02*
X102640047Y-117475190D01*
X102640047Y-116856142D01*
G04 #@! TO.C,J1005*
X101973380Y-143366904D02*
X102687666Y-143366904D01*
X102830523Y-143414523D01*
X102925761Y-143509761D01*
X102973380Y-143652619D01*
X102973380Y-143747857D01*
X102973380Y-142366904D02*
X102973380Y-142938333D01*
X102973380Y-142652619D02*
X101973380Y-142652619D01*
X102116238Y-142747857D01*
X102211476Y-142843095D01*
X102259095Y-142938333D01*
X101973380Y-141747857D02*
X101973380Y-141652619D01*
X102021000Y-141557380D01*
X102068619Y-141509761D01*
X102163857Y-141462142D01*
X102354333Y-141414523D01*
X102592428Y-141414523D01*
X102782904Y-141462142D01*
X102878142Y-141509761D01*
X102925761Y-141557380D01*
X102973380Y-141652619D01*
X102973380Y-141747857D01*
X102925761Y-141843095D01*
X102878142Y-141890714D01*
X102782904Y-141938333D01*
X102592428Y-141985952D01*
X102354333Y-141985952D01*
X102163857Y-141938333D01*
X102068619Y-141890714D01*
X102021000Y-141843095D01*
X101973380Y-141747857D01*
X101973380Y-140795476D02*
X101973380Y-140700238D01*
X102021000Y-140605000D01*
X102068619Y-140557380D01*
X102163857Y-140509761D01*
X102354333Y-140462142D01*
X102592428Y-140462142D01*
X102782904Y-140509761D01*
X102878142Y-140557380D01*
X102925761Y-140605000D01*
X102973380Y-140700238D01*
X102973380Y-140795476D01*
X102925761Y-140890714D01*
X102878142Y-140938333D01*
X102782904Y-140985952D01*
X102592428Y-141033571D01*
X102354333Y-141033571D01*
X102163857Y-140985952D01*
X102068619Y-140938333D01*
X102021000Y-140890714D01*
X101973380Y-140795476D01*
X101973380Y-139557380D02*
X101973380Y-140033571D01*
X102449571Y-140081190D01*
X102401952Y-140033571D01*
X102354333Y-139938333D01*
X102354333Y-139700238D01*
X102401952Y-139605000D01*
X102449571Y-139557380D01*
X102544809Y-139509761D01*
X102782904Y-139509761D01*
X102878142Y-139557380D01*
X102925761Y-139605000D01*
X102973380Y-139700238D01*
X102973380Y-139938333D01*
X102925761Y-140033571D01*
X102878142Y-140081190D01*
G04 #@! TO.C,RV1002*
X95431190Y-80302130D02*
X95097857Y-79825940D01*
X94859761Y-80302130D02*
X94859761Y-79302130D01*
X95240714Y-79302130D01*
X95335952Y-79349750D01*
X95383571Y-79397369D01*
X95431190Y-79492607D01*
X95431190Y-79635464D01*
X95383571Y-79730702D01*
X95335952Y-79778321D01*
X95240714Y-79825940D01*
X94859761Y-79825940D01*
X95716904Y-79302130D02*
X96050238Y-80302130D01*
X96383571Y-79302130D01*
X97240714Y-80302130D02*
X96669285Y-80302130D01*
X96955000Y-80302130D02*
X96955000Y-79302130D01*
X96859761Y-79444988D01*
X96764523Y-79540226D01*
X96669285Y-79587845D01*
X97859761Y-79302130D02*
X97955000Y-79302130D01*
X98050238Y-79349750D01*
X98097857Y-79397369D01*
X98145476Y-79492607D01*
X98193095Y-79683083D01*
X98193095Y-79921178D01*
X98145476Y-80111654D01*
X98097857Y-80206892D01*
X98050238Y-80254511D01*
X97955000Y-80302130D01*
X97859761Y-80302130D01*
X97764523Y-80254511D01*
X97716904Y-80206892D01*
X97669285Y-80111654D01*
X97621666Y-79921178D01*
X97621666Y-79683083D01*
X97669285Y-79492607D01*
X97716904Y-79397369D01*
X97764523Y-79349750D01*
X97859761Y-79302130D01*
X98812142Y-79302130D02*
X98907380Y-79302130D01*
X99002619Y-79349750D01*
X99050238Y-79397369D01*
X99097857Y-79492607D01*
X99145476Y-79683083D01*
X99145476Y-79921178D01*
X99097857Y-80111654D01*
X99050238Y-80206892D01*
X99002619Y-80254511D01*
X98907380Y-80302130D01*
X98812142Y-80302130D01*
X98716904Y-80254511D01*
X98669285Y-80206892D01*
X98621666Y-80111654D01*
X98574047Y-79921178D01*
X98574047Y-79683083D01*
X98621666Y-79492607D01*
X98669285Y-79397369D01*
X98716904Y-79349750D01*
X98812142Y-79302130D01*
X99526428Y-79397369D02*
X99574047Y-79349750D01*
X99669285Y-79302130D01*
X99907380Y-79302130D01*
X100002619Y-79349750D01*
X100050238Y-79397369D01*
X100097857Y-79492607D01*
X100097857Y-79587845D01*
X100050238Y-79730702D01*
X99478809Y-80302130D01*
X100097857Y-80302130D01*
G04 #@! TO.C,RV1004*
X95431190Y-125563630D02*
X95097857Y-125087440D01*
X94859761Y-125563630D02*
X94859761Y-124563630D01*
X95240714Y-124563630D01*
X95335952Y-124611250D01*
X95383571Y-124658869D01*
X95431190Y-124754107D01*
X95431190Y-124896964D01*
X95383571Y-124992202D01*
X95335952Y-125039821D01*
X95240714Y-125087440D01*
X94859761Y-125087440D01*
X95716904Y-124563630D02*
X96050238Y-125563630D01*
X96383571Y-124563630D01*
X97240714Y-125563630D02*
X96669285Y-125563630D01*
X96955000Y-125563630D02*
X96955000Y-124563630D01*
X96859761Y-124706488D01*
X96764523Y-124801726D01*
X96669285Y-124849345D01*
X97859761Y-124563630D02*
X97955000Y-124563630D01*
X98050238Y-124611250D01*
X98097857Y-124658869D01*
X98145476Y-124754107D01*
X98193095Y-124944583D01*
X98193095Y-125182678D01*
X98145476Y-125373154D01*
X98097857Y-125468392D01*
X98050238Y-125516011D01*
X97955000Y-125563630D01*
X97859761Y-125563630D01*
X97764523Y-125516011D01*
X97716904Y-125468392D01*
X97669285Y-125373154D01*
X97621666Y-125182678D01*
X97621666Y-124944583D01*
X97669285Y-124754107D01*
X97716904Y-124658869D01*
X97764523Y-124611250D01*
X97859761Y-124563630D01*
X98812142Y-124563630D02*
X98907380Y-124563630D01*
X99002619Y-124611250D01*
X99050238Y-124658869D01*
X99097857Y-124754107D01*
X99145476Y-124944583D01*
X99145476Y-125182678D01*
X99097857Y-125373154D01*
X99050238Y-125468392D01*
X99002619Y-125516011D01*
X98907380Y-125563630D01*
X98812142Y-125563630D01*
X98716904Y-125516011D01*
X98669285Y-125468392D01*
X98621666Y-125373154D01*
X98574047Y-125182678D01*
X98574047Y-124944583D01*
X98621666Y-124754107D01*
X98669285Y-124658869D01*
X98716904Y-124611250D01*
X98812142Y-124563630D01*
X100002619Y-124896964D02*
X100002619Y-125563630D01*
X99764523Y-124516011D02*
X99526428Y-125230297D01*
X100145476Y-125230297D01*
G04 #@! TO.C,RV1005*
X95431190Y-148194380D02*
X95097857Y-147718190D01*
X94859761Y-148194380D02*
X94859761Y-147194380D01*
X95240714Y-147194380D01*
X95335952Y-147242000D01*
X95383571Y-147289619D01*
X95431190Y-147384857D01*
X95431190Y-147527714D01*
X95383571Y-147622952D01*
X95335952Y-147670571D01*
X95240714Y-147718190D01*
X94859761Y-147718190D01*
X95716904Y-147194380D02*
X96050238Y-148194380D01*
X96383571Y-147194380D01*
X97240714Y-148194380D02*
X96669285Y-148194380D01*
X96955000Y-148194380D02*
X96955000Y-147194380D01*
X96859761Y-147337238D01*
X96764523Y-147432476D01*
X96669285Y-147480095D01*
X97859761Y-147194380D02*
X97955000Y-147194380D01*
X98050238Y-147242000D01*
X98097857Y-147289619D01*
X98145476Y-147384857D01*
X98193095Y-147575333D01*
X98193095Y-147813428D01*
X98145476Y-148003904D01*
X98097857Y-148099142D01*
X98050238Y-148146761D01*
X97955000Y-148194380D01*
X97859761Y-148194380D01*
X97764523Y-148146761D01*
X97716904Y-148099142D01*
X97669285Y-148003904D01*
X97621666Y-147813428D01*
X97621666Y-147575333D01*
X97669285Y-147384857D01*
X97716904Y-147289619D01*
X97764523Y-147242000D01*
X97859761Y-147194380D01*
X98812142Y-147194380D02*
X98907380Y-147194380D01*
X99002619Y-147242000D01*
X99050238Y-147289619D01*
X99097857Y-147384857D01*
X99145476Y-147575333D01*
X99145476Y-147813428D01*
X99097857Y-148003904D01*
X99050238Y-148099142D01*
X99002619Y-148146761D01*
X98907380Y-148194380D01*
X98812142Y-148194380D01*
X98716904Y-148146761D01*
X98669285Y-148099142D01*
X98621666Y-148003904D01*
X98574047Y-147813428D01*
X98574047Y-147575333D01*
X98621666Y-147384857D01*
X98669285Y-147289619D01*
X98716904Y-147242000D01*
X98812142Y-147194380D01*
X100050238Y-147194380D02*
X99574047Y-147194380D01*
X99526428Y-147670571D01*
X99574047Y-147622952D01*
X99669285Y-147575333D01*
X99907380Y-147575333D01*
X100002619Y-147622952D01*
X100050238Y-147670571D01*
X100097857Y-147765809D01*
X100097857Y-148003904D01*
X100050238Y-148099142D01*
X100002619Y-148146761D01*
X99907380Y-148194380D01*
X99669285Y-148194380D01*
X99574047Y-148146761D01*
X99526428Y-148099142D01*
G04 #@! TO.C,RV1003*
X95431190Y-102932880D02*
X95097857Y-102456690D01*
X94859761Y-102932880D02*
X94859761Y-101932880D01*
X95240714Y-101932880D01*
X95335952Y-101980500D01*
X95383571Y-102028119D01*
X95431190Y-102123357D01*
X95431190Y-102266214D01*
X95383571Y-102361452D01*
X95335952Y-102409071D01*
X95240714Y-102456690D01*
X94859761Y-102456690D01*
X95716904Y-101932880D02*
X96050238Y-102932880D01*
X96383571Y-101932880D01*
X97240714Y-102932880D02*
X96669285Y-102932880D01*
X96955000Y-102932880D02*
X96955000Y-101932880D01*
X96859761Y-102075738D01*
X96764523Y-102170976D01*
X96669285Y-102218595D01*
X97859761Y-101932880D02*
X97955000Y-101932880D01*
X98050238Y-101980500D01*
X98097857Y-102028119D01*
X98145476Y-102123357D01*
X98193095Y-102313833D01*
X98193095Y-102551928D01*
X98145476Y-102742404D01*
X98097857Y-102837642D01*
X98050238Y-102885261D01*
X97955000Y-102932880D01*
X97859761Y-102932880D01*
X97764523Y-102885261D01*
X97716904Y-102837642D01*
X97669285Y-102742404D01*
X97621666Y-102551928D01*
X97621666Y-102313833D01*
X97669285Y-102123357D01*
X97716904Y-102028119D01*
X97764523Y-101980500D01*
X97859761Y-101932880D01*
X98812142Y-101932880D02*
X98907380Y-101932880D01*
X99002619Y-101980500D01*
X99050238Y-102028119D01*
X99097857Y-102123357D01*
X99145476Y-102313833D01*
X99145476Y-102551928D01*
X99097857Y-102742404D01*
X99050238Y-102837642D01*
X99002619Y-102885261D01*
X98907380Y-102932880D01*
X98812142Y-102932880D01*
X98716904Y-102885261D01*
X98669285Y-102837642D01*
X98621666Y-102742404D01*
X98574047Y-102551928D01*
X98574047Y-102313833D01*
X98621666Y-102123357D01*
X98669285Y-102028119D01*
X98716904Y-101980500D01*
X98812142Y-101932880D01*
X99478809Y-101932880D02*
X100097857Y-101932880D01*
X99764523Y-102313833D01*
X99907380Y-102313833D01*
X100002619Y-102361452D01*
X100050238Y-102409071D01*
X100097857Y-102504309D01*
X100097857Y-102742404D01*
X100050238Y-102837642D01*
X100002619Y-102885261D01*
X99907380Y-102932880D01*
X99621666Y-102932880D01*
X99526428Y-102885261D01*
X99478809Y-102837642D01*
G04 #@! TO.C,J1002*
X101973380Y-75548904D02*
X102687666Y-75548904D01*
X102830523Y-75596523D01*
X102925761Y-75691761D01*
X102973380Y-75834619D01*
X102973380Y-75929857D01*
X102973380Y-74548904D02*
X102973380Y-75120333D01*
X102973380Y-74834619D02*
X101973380Y-74834619D01*
X102116238Y-74929857D01*
X102211476Y-75025095D01*
X102259095Y-75120333D01*
X101973380Y-73929857D02*
X101973380Y-73834619D01*
X102021000Y-73739380D01*
X102068619Y-73691761D01*
X102163857Y-73644142D01*
X102354333Y-73596523D01*
X102592428Y-73596523D01*
X102782904Y-73644142D01*
X102878142Y-73691761D01*
X102925761Y-73739380D01*
X102973380Y-73834619D01*
X102973380Y-73929857D01*
X102925761Y-74025095D01*
X102878142Y-74072714D01*
X102782904Y-74120333D01*
X102592428Y-74167952D01*
X102354333Y-74167952D01*
X102163857Y-74120333D01*
X102068619Y-74072714D01*
X102021000Y-74025095D01*
X101973380Y-73929857D01*
X101973380Y-72977476D02*
X101973380Y-72882238D01*
X102021000Y-72787000D01*
X102068619Y-72739380D01*
X102163857Y-72691761D01*
X102354333Y-72644142D01*
X102592428Y-72644142D01*
X102782904Y-72691761D01*
X102878142Y-72739380D01*
X102925761Y-72787000D01*
X102973380Y-72882238D01*
X102973380Y-72977476D01*
X102925761Y-73072714D01*
X102878142Y-73120333D01*
X102782904Y-73167952D01*
X102592428Y-73215571D01*
X102354333Y-73215571D01*
X102163857Y-73167952D01*
X102068619Y-73120333D01*
X102021000Y-73072714D01*
X101973380Y-72977476D01*
X102068619Y-72263190D02*
X102021000Y-72215571D01*
X101973380Y-72120333D01*
X101973380Y-71882238D01*
X102021000Y-71787000D01*
X102068619Y-71739380D01*
X102163857Y-71691761D01*
X102259095Y-71691761D01*
X102401952Y-71739380D01*
X102973380Y-72310809D01*
X102973380Y-71691761D01*
G04 #@! TO.C,J1003*
X101973380Y-98154904D02*
X102687666Y-98154904D01*
X102830523Y-98202523D01*
X102925761Y-98297761D01*
X102973380Y-98440619D01*
X102973380Y-98535857D01*
X102973380Y-97154904D02*
X102973380Y-97726333D01*
X102973380Y-97440619D02*
X101973380Y-97440619D01*
X102116238Y-97535857D01*
X102211476Y-97631095D01*
X102259095Y-97726333D01*
X101973380Y-96535857D02*
X101973380Y-96440619D01*
X102021000Y-96345380D01*
X102068619Y-96297761D01*
X102163857Y-96250142D01*
X102354333Y-96202523D01*
X102592428Y-96202523D01*
X102782904Y-96250142D01*
X102878142Y-96297761D01*
X102925761Y-96345380D01*
X102973380Y-96440619D01*
X102973380Y-96535857D01*
X102925761Y-96631095D01*
X102878142Y-96678714D01*
X102782904Y-96726333D01*
X102592428Y-96773952D01*
X102354333Y-96773952D01*
X102163857Y-96726333D01*
X102068619Y-96678714D01*
X102021000Y-96631095D01*
X101973380Y-96535857D01*
X101973380Y-95583476D02*
X101973380Y-95488238D01*
X102021000Y-95393000D01*
X102068619Y-95345380D01*
X102163857Y-95297761D01*
X102354333Y-95250142D01*
X102592428Y-95250142D01*
X102782904Y-95297761D01*
X102878142Y-95345380D01*
X102925761Y-95393000D01*
X102973380Y-95488238D01*
X102973380Y-95583476D01*
X102925761Y-95678714D01*
X102878142Y-95726333D01*
X102782904Y-95773952D01*
X102592428Y-95821571D01*
X102354333Y-95821571D01*
X102163857Y-95773952D01*
X102068619Y-95726333D01*
X102021000Y-95678714D01*
X101973380Y-95583476D01*
X101973380Y-94916809D02*
X101973380Y-94297761D01*
X102354333Y-94631095D01*
X102354333Y-94488238D01*
X102401952Y-94393000D01*
X102449571Y-94345380D01*
X102544809Y-94297761D01*
X102782904Y-94297761D01*
X102878142Y-94345380D01*
X102925761Y-94393000D01*
X102973380Y-94488238D01*
X102973380Y-94773952D01*
X102925761Y-94869190D01*
X102878142Y-94916809D01*
G04 #@! TO.C,U1004*
D14*
X87292180Y-115904326D02*
X88101704Y-115904326D01*
X88196942Y-115856707D01*
X88244561Y-115809088D01*
X88292180Y-115713850D01*
X88292180Y-115523373D01*
X88244561Y-115428135D01*
X88196942Y-115380516D01*
X88101704Y-115332897D01*
X87292180Y-115332897D01*
X88292180Y-114332897D02*
X88292180Y-114904326D01*
X88292180Y-114618611D02*
X87292180Y-114618611D01*
X87435038Y-114713850D01*
X87530276Y-114809088D01*
X87577895Y-114904326D01*
X87292180Y-113713850D02*
X87292180Y-113618611D01*
X87339800Y-113523373D01*
X87387419Y-113475754D01*
X87482657Y-113428135D01*
X87673133Y-113380516D01*
X87911228Y-113380516D01*
X88101704Y-113428135D01*
X88196942Y-113475754D01*
X88244561Y-113523373D01*
X88292180Y-113618611D01*
X88292180Y-113713850D01*
X88244561Y-113809088D01*
X88196942Y-113856707D01*
X88101704Y-113904326D01*
X87911228Y-113951945D01*
X87673133Y-113951945D01*
X87482657Y-113904326D01*
X87387419Y-113856707D01*
X87339800Y-113809088D01*
X87292180Y-113713850D01*
X87292180Y-112761469D02*
X87292180Y-112666230D01*
X87339800Y-112570992D01*
X87387419Y-112523373D01*
X87482657Y-112475754D01*
X87673133Y-112428135D01*
X87911228Y-112428135D01*
X88101704Y-112475754D01*
X88196942Y-112523373D01*
X88244561Y-112570992D01*
X88292180Y-112666230D01*
X88292180Y-112761469D01*
X88244561Y-112856707D01*
X88196942Y-112904326D01*
X88101704Y-112951945D01*
X87911228Y-112999564D01*
X87673133Y-112999564D01*
X87482657Y-112951945D01*
X87387419Y-112904326D01*
X87339800Y-112856707D01*
X87292180Y-112761469D01*
X87625514Y-111570992D02*
X88292180Y-111570992D01*
X87244561Y-111809088D02*
X87958847Y-112047183D01*
X87958847Y-111428135D01*
G04 #@! TO.C,U1005*
X87292180Y-138535076D02*
X88101704Y-138535076D01*
X88196942Y-138487457D01*
X88244561Y-138439838D01*
X88292180Y-138344600D01*
X88292180Y-138154123D01*
X88244561Y-138058885D01*
X88196942Y-138011266D01*
X88101704Y-137963647D01*
X87292180Y-137963647D01*
X88292180Y-136963647D02*
X88292180Y-137535076D01*
X88292180Y-137249361D02*
X87292180Y-137249361D01*
X87435038Y-137344600D01*
X87530276Y-137439838D01*
X87577895Y-137535076D01*
X87292180Y-136344600D02*
X87292180Y-136249361D01*
X87339800Y-136154123D01*
X87387419Y-136106504D01*
X87482657Y-136058885D01*
X87673133Y-136011266D01*
X87911228Y-136011266D01*
X88101704Y-136058885D01*
X88196942Y-136106504D01*
X88244561Y-136154123D01*
X88292180Y-136249361D01*
X88292180Y-136344600D01*
X88244561Y-136439838D01*
X88196942Y-136487457D01*
X88101704Y-136535076D01*
X87911228Y-136582695D01*
X87673133Y-136582695D01*
X87482657Y-136535076D01*
X87387419Y-136487457D01*
X87339800Y-136439838D01*
X87292180Y-136344600D01*
X87292180Y-135392219D02*
X87292180Y-135296980D01*
X87339800Y-135201742D01*
X87387419Y-135154123D01*
X87482657Y-135106504D01*
X87673133Y-135058885D01*
X87911228Y-135058885D01*
X88101704Y-135106504D01*
X88196942Y-135154123D01*
X88244561Y-135201742D01*
X88292180Y-135296980D01*
X88292180Y-135392219D01*
X88244561Y-135487457D01*
X88196942Y-135535076D01*
X88101704Y-135582695D01*
X87911228Y-135630314D01*
X87673133Y-135630314D01*
X87482657Y-135582695D01*
X87387419Y-135535076D01*
X87339800Y-135487457D01*
X87292180Y-135392219D01*
X87292180Y-134154123D02*
X87292180Y-134630314D01*
X87768371Y-134677933D01*
X87720752Y-134630314D01*
X87673133Y-134535076D01*
X87673133Y-134296980D01*
X87720752Y-134201742D01*
X87768371Y-134154123D01*
X87863609Y-134106504D01*
X88101704Y-134106504D01*
X88196942Y-134154123D01*
X88244561Y-134201742D01*
X88292180Y-134296980D01*
X88292180Y-134535076D01*
X88244561Y-134630314D01*
X88196942Y-134677933D01*
G04 #@! TO.C,U1002*
X87292180Y-70642826D02*
X88101704Y-70642826D01*
X88196942Y-70595207D01*
X88244561Y-70547588D01*
X88292180Y-70452350D01*
X88292180Y-70261873D01*
X88244561Y-70166635D01*
X88196942Y-70119016D01*
X88101704Y-70071397D01*
X87292180Y-70071397D01*
X88292180Y-69071397D02*
X88292180Y-69642826D01*
X88292180Y-69357111D02*
X87292180Y-69357111D01*
X87435038Y-69452350D01*
X87530276Y-69547588D01*
X87577895Y-69642826D01*
X87292180Y-68452350D02*
X87292180Y-68357111D01*
X87339800Y-68261873D01*
X87387419Y-68214254D01*
X87482657Y-68166635D01*
X87673133Y-68119016D01*
X87911228Y-68119016D01*
X88101704Y-68166635D01*
X88196942Y-68214254D01*
X88244561Y-68261873D01*
X88292180Y-68357111D01*
X88292180Y-68452350D01*
X88244561Y-68547588D01*
X88196942Y-68595207D01*
X88101704Y-68642826D01*
X87911228Y-68690445D01*
X87673133Y-68690445D01*
X87482657Y-68642826D01*
X87387419Y-68595207D01*
X87339800Y-68547588D01*
X87292180Y-68452350D01*
X87292180Y-67499969D02*
X87292180Y-67404730D01*
X87339800Y-67309492D01*
X87387419Y-67261873D01*
X87482657Y-67214254D01*
X87673133Y-67166635D01*
X87911228Y-67166635D01*
X88101704Y-67214254D01*
X88196942Y-67261873D01*
X88244561Y-67309492D01*
X88292180Y-67404730D01*
X88292180Y-67499969D01*
X88244561Y-67595207D01*
X88196942Y-67642826D01*
X88101704Y-67690445D01*
X87911228Y-67738064D01*
X87673133Y-67738064D01*
X87482657Y-67690445D01*
X87387419Y-67642826D01*
X87339800Y-67595207D01*
X87292180Y-67499969D01*
X87387419Y-66785683D02*
X87339800Y-66738064D01*
X87292180Y-66642826D01*
X87292180Y-66404730D01*
X87339800Y-66309492D01*
X87387419Y-66261873D01*
X87482657Y-66214254D01*
X87577895Y-66214254D01*
X87720752Y-66261873D01*
X88292180Y-66833302D01*
X88292180Y-66214254D01*
G04 #@! TO.C,U1003*
X87292180Y-93273576D02*
X88101704Y-93273576D01*
X88196942Y-93225957D01*
X88244561Y-93178338D01*
X88292180Y-93083100D01*
X88292180Y-92892623D01*
X88244561Y-92797385D01*
X88196942Y-92749766D01*
X88101704Y-92702147D01*
X87292180Y-92702147D01*
X88292180Y-91702147D02*
X88292180Y-92273576D01*
X88292180Y-91987861D02*
X87292180Y-91987861D01*
X87435038Y-92083100D01*
X87530276Y-92178338D01*
X87577895Y-92273576D01*
X87292180Y-91083100D02*
X87292180Y-90987861D01*
X87339800Y-90892623D01*
X87387419Y-90845004D01*
X87482657Y-90797385D01*
X87673133Y-90749766D01*
X87911228Y-90749766D01*
X88101704Y-90797385D01*
X88196942Y-90845004D01*
X88244561Y-90892623D01*
X88292180Y-90987861D01*
X88292180Y-91083100D01*
X88244561Y-91178338D01*
X88196942Y-91225957D01*
X88101704Y-91273576D01*
X87911228Y-91321195D01*
X87673133Y-91321195D01*
X87482657Y-91273576D01*
X87387419Y-91225957D01*
X87339800Y-91178338D01*
X87292180Y-91083100D01*
X87292180Y-90130719D02*
X87292180Y-90035480D01*
X87339800Y-89940242D01*
X87387419Y-89892623D01*
X87482657Y-89845004D01*
X87673133Y-89797385D01*
X87911228Y-89797385D01*
X88101704Y-89845004D01*
X88196942Y-89892623D01*
X88244561Y-89940242D01*
X88292180Y-90035480D01*
X88292180Y-90130719D01*
X88244561Y-90225957D01*
X88196942Y-90273576D01*
X88101704Y-90321195D01*
X87911228Y-90368814D01*
X87673133Y-90368814D01*
X87482657Y-90321195D01*
X87387419Y-90273576D01*
X87339800Y-90225957D01*
X87292180Y-90130719D01*
X87292180Y-89464052D02*
X87292180Y-88845004D01*
X87673133Y-89178338D01*
X87673133Y-89035480D01*
X87720752Y-88940242D01*
X87768371Y-88892623D01*
X87863609Y-88845004D01*
X88101704Y-88845004D01*
X88196942Y-88892623D01*
X88244561Y-88940242D01*
X88292180Y-89035480D01*
X88292180Y-89321195D01*
X88244561Y-89416433D01*
X88196942Y-89464052D01*
G04 #@! TO.C,J1001*
D13*
X101973380Y-52942904D02*
X102687666Y-52942904D01*
X102830523Y-52990523D01*
X102925761Y-53085761D01*
X102973380Y-53228619D01*
X102973380Y-53323857D01*
X102973380Y-51942904D02*
X102973380Y-52514333D01*
X102973380Y-52228619D02*
X101973380Y-52228619D01*
X102116238Y-52323857D01*
X102211476Y-52419095D01*
X102259095Y-52514333D01*
X101973380Y-51323857D02*
X101973380Y-51228619D01*
X102021000Y-51133380D01*
X102068619Y-51085761D01*
X102163857Y-51038142D01*
X102354333Y-50990523D01*
X102592428Y-50990523D01*
X102782904Y-51038142D01*
X102878142Y-51085761D01*
X102925761Y-51133380D01*
X102973380Y-51228619D01*
X102973380Y-51323857D01*
X102925761Y-51419095D01*
X102878142Y-51466714D01*
X102782904Y-51514333D01*
X102592428Y-51561952D01*
X102354333Y-51561952D01*
X102163857Y-51514333D01*
X102068619Y-51466714D01*
X102021000Y-51419095D01*
X101973380Y-51323857D01*
X101973380Y-50371476D02*
X101973380Y-50276238D01*
X102021000Y-50181000D01*
X102068619Y-50133380D01*
X102163857Y-50085761D01*
X102354333Y-50038142D01*
X102592428Y-50038142D01*
X102782904Y-50085761D01*
X102878142Y-50133380D01*
X102925761Y-50181000D01*
X102973380Y-50276238D01*
X102973380Y-50371476D01*
X102925761Y-50466714D01*
X102878142Y-50514333D01*
X102782904Y-50561952D01*
X102592428Y-50609571D01*
X102354333Y-50609571D01*
X102163857Y-50561952D01*
X102068619Y-50514333D01*
X102021000Y-50466714D01*
X101973380Y-50371476D01*
X102973380Y-49085761D02*
X102973380Y-49657190D01*
X102973380Y-49371476D02*
X101973380Y-49371476D01*
X102116238Y-49466714D01*
X102211476Y-49561952D01*
X102259095Y-49657190D01*
G04 #@! TO.C,RV1001*
X95431190Y-57671380D02*
X95097857Y-57195190D01*
X94859761Y-57671380D02*
X94859761Y-56671380D01*
X95240714Y-56671380D01*
X95335952Y-56719000D01*
X95383571Y-56766619D01*
X95431190Y-56861857D01*
X95431190Y-57004714D01*
X95383571Y-57099952D01*
X95335952Y-57147571D01*
X95240714Y-57195190D01*
X94859761Y-57195190D01*
X95716904Y-56671380D02*
X96050238Y-57671380D01*
X96383571Y-56671380D01*
X97240714Y-57671380D02*
X96669285Y-57671380D01*
X96955000Y-57671380D02*
X96955000Y-56671380D01*
X96859761Y-56814238D01*
X96764523Y-56909476D01*
X96669285Y-56957095D01*
X97859761Y-56671380D02*
X97955000Y-56671380D01*
X98050238Y-56719000D01*
X98097857Y-56766619D01*
X98145476Y-56861857D01*
X98193095Y-57052333D01*
X98193095Y-57290428D01*
X98145476Y-57480904D01*
X98097857Y-57576142D01*
X98050238Y-57623761D01*
X97955000Y-57671380D01*
X97859761Y-57671380D01*
X97764523Y-57623761D01*
X97716904Y-57576142D01*
X97669285Y-57480904D01*
X97621666Y-57290428D01*
X97621666Y-57052333D01*
X97669285Y-56861857D01*
X97716904Y-56766619D01*
X97764523Y-56719000D01*
X97859761Y-56671380D01*
X98812142Y-56671380D02*
X98907380Y-56671380D01*
X99002619Y-56719000D01*
X99050238Y-56766619D01*
X99097857Y-56861857D01*
X99145476Y-57052333D01*
X99145476Y-57290428D01*
X99097857Y-57480904D01*
X99050238Y-57576142D01*
X99002619Y-57623761D01*
X98907380Y-57671380D01*
X98812142Y-57671380D01*
X98716904Y-57623761D01*
X98669285Y-57576142D01*
X98621666Y-57480904D01*
X98574047Y-57290428D01*
X98574047Y-57052333D01*
X98621666Y-56861857D01*
X98669285Y-56766619D01*
X98716904Y-56719000D01*
X98812142Y-56671380D01*
X100097857Y-57671380D02*
X99526428Y-57671380D01*
X99812142Y-57671380D02*
X99812142Y-56671380D01*
X99716904Y-56814238D01*
X99621666Y-56909476D01*
X99526428Y-56957095D01*
G04 #@! TO.C,U1001*
D14*
X87292180Y-48012076D02*
X88101704Y-48012076D01*
X88196942Y-47964457D01*
X88244561Y-47916838D01*
X88292180Y-47821600D01*
X88292180Y-47631123D01*
X88244561Y-47535885D01*
X88196942Y-47488266D01*
X88101704Y-47440647D01*
X87292180Y-47440647D01*
X88292180Y-46440647D02*
X88292180Y-47012076D01*
X88292180Y-46726361D02*
X87292180Y-46726361D01*
X87435038Y-46821600D01*
X87530276Y-46916838D01*
X87577895Y-47012076D01*
X87292180Y-45821600D02*
X87292180Y-45726361D01*
X87339800Y-45631123D01*
X87387419Y-45583504D01*
X87482657Y-45535885D01*
X87673133Y-45488266D01*
X87911228Y-45488266D01*
X88101704Y-45535885D01*
X88196942Y-45583504D01*
X88244561Y-45631123D01*
X88292180Y-45726361D01*
X88292180Y-45821600D01*
X88244561Y-45916838D01*
X88196942Y-45964457D01*
X88101704Y-46012076D01*
X87911228Y-46059695D01*
X87673133Y-46059695D01*
X87482657Y-46012076D01*
X87387419Y-45964457D01*
X87339800Y-45916838D01*
X87292180Y-45821600D01*
X87292180Y-44869219D02*
X87292180Y-44773980D01*
X87339800Y-44678742D01*
X87387419Y-44631123D01*
X87482657Y-44583504D01*
X87673133Y-44535885D01*
X87911228Y-44535885D01*
X88101704Y-44583504D01*
X88196942Y-44631123D01*
X88244561Y-44678742D01*
X88292180Y-44773980D01*
X88292180Y-44869219D01*
X88244561Y-44964457D01*
X88196942Y-45012076D01*
X88101704Y-45059695D01*
X87911228Y-45107314D01*
X87673133Y-45107314D01*
X87482657Y-45059695D01*
X87387419Y-45012076D01*
X87339800Y-44964457D01*
X87292180Y-44869219D01*
X88292180Y-43583504D02*
X88292180Y-44154933D01*
X88292180Y-43869219D02*
X87292180Y-43869219D01*
X87435038Y-43964457D01*
X87530276Y-44059695D01*
X87577895Y-44154933D01*
G04 #@! TD*
M02*
